<svg version="1.1" id="Layer_1" xmlns="http://www.w3.org/2000/svg" xmlns:xlink="http://www.w3.org/1999/xlink" x="0px" y="0px"
	 width="100%" viewBox="0 0 388 387" enable-background="new 0 0 388 387" xml:space="preserve">
<path fill="#590E82" opacity="1.000000" stroke="none"
	  d="
M19.049393,259.921295 
	C-5.291168,200.187378 1.012310,142.220413 28.035835,85.736877 
	C41.522099,57.548405 63.882290,37.585285 92.321274,24.785881 
	C132.912369,6.517238 175.610703,0.330152 219.581726,5.911455 
	C268.956451,12.178659 307.851715,37.235447 337.057159,76.994698 
	C357.864777,105.321472 374.189209,136.193207 382.187469,170.733551 
	C388.185455,196.635818 385.016113,222.460724 378.494781,247.826813 
	C367.301117,291.366882 341.577362,324.357117 303.709900,348.052094 
	C276.576385,365.030426 247.762436,378.158386 215.926422,383.356354 
	C196.075760,386.597382 176.052505,385.412872 156.134003,383.542633 
	C140.027298,382.030304 124.189613,378.987305 109.125267,372.809753 
	C83.885521,362.459442 65.070251,344.647339 50.367340,322.061493 
	C37.704304,302.609192 27.720911,281.813110 19.049393,259.921295 
M138.375076,294.810364 
	C138.042664,299.729706 137.710236,304.649048 137.346664,310.029449 
	C152.046875,309.470886 166.338135,309.052856 179.248779,301.710999 
	C180.857803,300.796021 182.658798,298.836548 182.908752,297.145020 
	C184.221603,288.260559 185.174347,279.317322 186.039734,270.373901 
	C186.950287,260.963654 187.621063,251.530197 188.396606,242.106873 
	C188.849487,242.029221 189.302383,241.951569 189.755264,241.873917 
	C196.162430,266.539886 202.569580,291.205841 209.030289,316.077942 
	C223.738205,310.649200 237.026718,302.691223 248.392609,291.668640 
	C249.368668,290.722076 249.982742,288.666534 249.740814,287.308655 
	C245.161987,261.609528 240.509979,235.922455 235.620880,210.280975 
	C235.036880,207.218109 235.155258,204.952362 237.099487,202.498062 
	C242.721634,195.400986 245.962631,187.331635 246.355743,178.205063 
	C246.584915,172.884766 247.056778,167.565964 247.059280,162.246338 
	C247.070953,137.429520 246.896454,112.604179 242.239471,88.103020 
	C240.147598,77.097191 237.832443,74.904015 226.770645,73.059067 
	C212.141800,70.619171 197.590485,71.761238 183.087128,74.497063 
	C170.735550,76.826981 158.975891,80.665421 148.071487,87.021584 
	C145.232788,88.676262 143.998444,90.620491 143.977097,94.150238 
	C143.778625,126.960632 143.774002,159.781860 142.848679,192.575546 
	C141.895386,226.359344 139.976883,260.115906 138.375076,294.810364 
z"/>
	<path fill="#FCFBFD" opacity="1.000000" stroke="none"
		  d="
M138.427887,294.347382 
	C139.976883,260.115906 141.895386,226.359344 142.848679,192.575546 
	C143.774002,159.781860 143.778625,126.960632 143.977097,94.150238 
	C143.998444,90.620491 145.232788,88.676262 148.071487,87.021584 
	C158.975891,80.665421 170.735550,76.826981 183.087128,74.497063 
	C197.590485,71.761238 212.141800,70.619171 226.770645,73.059067 
	C237.832443,74.904015 240.147598,77.097191 242.239471,88.103020 
	C246.896454,112.604179 247.070953,137.429520 247.059280,162.246338 
	C247.056778,167.565964 246.584915,172.884766 246.355743,178.205063 
	C245.962631,187.331635 242.721634,195.400986 237.099487,202.498062 
	C235.155258,204.952362 235.036880,207.218109 235.620880,210.280975 
	C240.509979,235.922455 245.161987,261.609528 249.740814,287.308655 
	C249.982742,288.666534 249.368668,290.722076 248.392609,291.668640 
	C237.026718,302.691223 223.738205,310.649200 209.030289,316.077942 
	C202.569580,291.205841 196.162430,266.539886 189.755264,241.873917 
	C189.302383,241.951569 188.849487,242.029221 188.396606,242.106873 
	C187.621063,251.530197 186.950287,260.963654 186.039734,270.373901 
	C185.174347,279.317322 184.221603,288.260559 182.908752,297.145020 
	C182.658798,298.836548 180.857803,300.796021 179.248779,301.710999 
	C166.338135,309.052856 152.046875,309.470886 137.346664,310.029449 
	C137.710236,304.649048 138.042664,299.729706 138.427887,294.347382 
M231.693848,126.946457 
	C231.461365,124.125130 231.354568,121.286606 230.971405,118.485893 
	C230.048004,111.736153 229.072632,104.991402 227.969330,98.269073 
	C227.139801,93.214828 224.208603,90.349945 218.902817,90.027199 
	C214.590698,89.764885 210.299362,89.027229 205.987839,88.912445 
	C189.409531,88.471100 173.070374,89.764931 157.432251,95.982185 
	C154.739334,97.052826 153.624954,98.427223 153.786880,101.477936 
	C154.201675,109.292557 154.314194,117.127167 154.388016,124.955292 
	C154.862274,175.254700 155.316055,225.554337 155.703888,275.854462 
	C155.741959,280.793579 155.288742,285.736481 155.032104,291.368103 
	C159.387466,290.864471 163.125076,290.349457 166.878967,290.020477 
	C170.998657,289.659485 172.845673,287.839050 172.996567,283.402740 
	C173.522766,267.932037 174.340897,252.468460 175.297272,237.017593 
	C175.487015,233.952164 176.317596,230.728836 177.664841,227.975769 
	C180.103577,222.992294 184.439682,220.096161 190.080032,220.246506 
	C195.473282,220.390274 199.155716,223.740494 200.906693,228.563446 
	C206.119415,242.921661 211.138275,257.353912 215.978943,271.842102 
	C218.535538,279.494019 220.563965,287.322418 223.066422,295.876343 
	C228.194901,292.351868 232.788239,289.395386 237.098984,286.072357 
	C238.018219,285.363739 238.484421,283.190216 238.190521,281.914856 
	C232.518066,257.300262 226.790680,232.697083 220.802383,208.157990 
	C220.042099,205.042435 220.101562,202.846405 222.336838,200.539032 
	C230.354279,192.262909 233.199570,182.151672 232.834259,170.839767 
	C232.371902,156.523453 232.109940,142.200653 231.693848,126.946457 
z"/>
	<path fill="#5B1083" opacity="1.000000" stroke="none"
		  d="
M231.727692,127.413559 
	C232.109940,142.200653 232.371902,156.523453 232.834259,170.839767 
	C233.199570,182.151672 230.354279,192.262909 222.336838,200.539032 
	C220.101562,202.846405 220.042099,205.042435 220.802383,208.157990 
	C226.790680,232.697083 232.518066,257.300262 238.190521,281.914856 
	C238.484421,283.190216 238.018219,285.363739 237.098984,286.072357 
	C232.788239,289.395386 228.194901,292.351868 223.066422,295.876343 
	C220.563965,287.322418 218.535538,279.494019 215.978943,271.842102 
	C211.138275,257.353912 206.119415,242.921661 200.906693,228.563446 
	C199.155716,223.740494 195.473282,220.390274 190.080032,220.246506 
	C184.439682,220.096161 180.103577,222.992294 177.664841,227.975769 
	C176.317596,230.728836 175.487015,233.952164 175.297272,237.017593 
	C174.340897,252.468460 173.522766,267.932037 172.996567,283.402740 
	C172.845673,287.839050 170.998657,289.659485 166.878967,290.020477 
	C163.125076,290.349457 159.387466,290.864471 155.032104,291.368103 
	C155.288742,285.736481 155.741959,280.793579 155.703888,275.854462 
	C155.316055,225.554337 154.862274,175.254700 154.388016,124.955292 
	C154.314194,117.127167 154.201675,109.292557 153.786880,101.477936 
	C153.624954,98.427223 154.739334,97.052826 157.432251,95.982185 
	C173.070374,89.764931 189.409531,88.471100 205.987839,88.912445 
	C210.299362,89.027229 214.590698,89.764885 218.902817,90.027199 
	C224.208603,90.349945 227.139801,93.214828 227.969330,98.269073 
	C229.072632,104.991402 230.048004,111.736153 230.971405,118.485893 
	C231.354568,121.286606 231.461365,124.125130 231.727692,127.413559 
M182.750473,191.155121 
	C196.628937,194.866806 208.987747,186.141251 209.762146,171.340866 
	C210.361160,159.892517 210.155609,148.374985 209.711929,136.911270 
	C209.508972,131.667130 208.424622,126.293671 206.755630,121.308426 
	C204.316650,114.023331 199.139847,111.110680 192.204437,111.967018 
	C184.671173,112.897163 176.252258,120.364792 175.892654,127.971016 
	C175.083740,145.080872 174.990585,162.226242 174.721329,179.358963 
	C174.637848,184.670471 177.183228,188.559967 182.750473,191.155121 
z"/>
	<path fill="#FCFBFD" opacity="1.000000" stroke="none"
		  d="
M182.372009,191.031036 
	C177.183228,188.559967 174.637848,184.670471 174.721329,179.358963 
	C174.990585,162.226242 175.083740,145.080872 175.892654,127.971016 
	C176.252258,120.364792 184.671173,112.897163 192.204437,111.967018 
	C199.139847,111.110680 204.316650,114.023331 206.755630,121.308426 
	C208.424622,126.293671 209.508972,131.667130 209.711929,136.911270 
	C210.155609,148.374985 210.361160,159.892517 209.762146,171.340866 
	C208.987747,186.141251 196.628937,194.866806 182.372009,191.031036 
M189.932907,174.755020 
	C189.875229,176.840103 190.645615,178.484116 192.667953,176.643494 
	C194.245941,175.207275 195.862991,172.884613 195.949646,170.890121 
	C196.510651,157.977325 196.740677,145.047150 196.840820,132.120819 
	C196.854599,130.342590 195.548264,128.554153 194.853104,126.770432 
	C194.210983,126.888504 193.568863,127.006584 192.926727,127.124664 
	C190.922073,142.632065 189.804047,158.213562 189.932907,174.755020 
z"/>
	<path fill="#611888" opacity="1.000000" stroke="none"
		  d="
M189.927216,174.326660 
	C189.804047,158.213562 190.922073,142.632065 192.926727,127.124664 
	C193.568863,127.006584 194.210983,126.888504 194.853104,126.770432 
	C195.548264,128.554153 196.854599,130.342590 196.840820,132.120819 
	C196.740677,145.047150 196.510651,157.977325 195.949646,170.890121 
	C195.862991,172.884613 194.245941,175.207275 192.667953,176.643494 
	C190.645615,178.484116 189.875229,176.840103 189.927216,174.326660 
z"/>
</svg>